<?xml version="1.0" encoding="UTF-8"?><svg id="Layer_2" xmlns="http://www.w3.org/2000/svg" viewBox="0 0 460 335.54"><defs><style>.cls-1{fill:#ffb000;}.cls-2{fill:#fff;}.cls-3{fill:#080717;}</style></defs><g id="Layer_1-2"><g><path class="cls-3" d="M368.2,78.45c-2.47-29.02-32.99-49.92-67.56-45.76-31.06,3.74-54.74,27.19-54.11,53.62,.28,11.72,7.02,24.52,21.22,32.64,16.08,5.27,27.29,5.33,47.96,3.44,30.84-2.83,52.55-43.15,52.48-43.93Z"/><path class="cls-2" d="M40.19,65.67l-8.47-6.63-15.13,5.76c-4.59,3.26-5.94,4.88-8.83,9.24l-2.21,2S-2.26,36.23,16.78,22.15C35.82,8.08,68.81-7.47,82.73,7.12c13.92,14.59,20.69,46.63,20.69,46.63,0,0-10.64,10.39-16.32,.87-7.8-13.05-11.41-19.71-11.41-19.71l13.61,34.87s-6.73,4.91-14.38,5.59c-7.64,.68-18.81,5.06-34.74-9.7Z"/><path class="cls-3" d="M446.03,163.62h0c2.93-22.31-14.29-42.36-36.8-42.42-.17,0-.32,0-.45,0-31.45,.62-32.13-19.52-32.13-20.61,.18-34.24-28.09-61.99-62.63-60.83-31.04,1.04-71.17,28.67-58.34,56.96,20.19,44.53-.08,79.87,24.25,82.07,19.98,1.8,113.89,4.87,153.5-2.04,6.62-1.16,11.73-6.47,12.6-13.13Z"/><g><path class="cls-2" d="M451.12,251.35l-49.84-85.76c-6.98-12.01-21.64-22.63-35.12-19.26l-69.32,21.3c-42.81-9.39-185.31-26.38-185.31-26.38L52.01,56.04,6.69,68.22l36.52,77.49c22.99,38.84,29.06,49.31,57,55.76l161.45,51.39,34.49,78.45,71.01,1.69h36.96c30.01,0,54.34-24.33,54.34-54.34h0c0-9.59-2.54-19.01-7.36-27.31Z"/><path class="cls-3" d="M404.13,334.52h-36.96l-71.05-1.69c-.59-.01-1.12-.37-1.36-.91l-34.22-77.82-160.79-51.18c-28.3-6.52-34.48-16.96-57.46-55.78l-.39-.66L5.31,68.87c-.19-.41-.19-.88,0-1.29,.19-.41,.55-.71,.99-.83l45.31-12.17c.62-.17,1.28,.07,1.65,.6l59.13,84.66c10.7,1.28,143.06,17.25,184.39,26.23l68.94-21.19c14.36-3.58,29.71,7.6,36.88,19.95l49.84,85.76c4.95,8.51,7.57,18.22,7.57,28.07,0,30.8-25.06,55.87-55.87,55.87Zm-106.97-4.72l70.04,1.67h36.93c29.12,0,52.82-23.69,52.82-52.82,0-9.31-2.47-18.49-7.15-26.54h0l-49.84-85.76c-6.62-11.39-20.59-21.75-33.43-18.55l-69.24,21.28c-.25,.08-.52,.09-.77,.03-42.25-9.26-183.74-26.18-185.17-26.35-.43-.05-.82-.28-1.07-.64L51.37,57.79l-42.52,11.42,35.75,75.84,.32,.53c22.46,37.93,28.49,48.13,55.64,54.39l161.57,51.42c.42,.13,.76,.44,.93,.84l34.1,77.56Z"/></g><path class="cls-1" d="M129.72,76.06c-7.59-.23-14.41,3.04-18.99,8.32-.97,1.11-2.36,1.75-3.83,1.75h-.1c-2.97,0-5.38-2.4-5.38-5.36v-31.25H22.28C9.98,49.52,0,59.49,0,71.8v79.14H33.06c2.06-.75,3.55-2.7,3.55-5.02h0c0-1.55-.67-3-1.83-4.02-5.23-4.58-8.47-11.37-8.24-18.92,.38-12.46,10.54-22.8,22.99-23.39,13.89-.66,25.36,10.41,25.36,24.15,0,7.14-3.1,13.54-8.03,17.96-1.02,.92-1.81,2.11-2,3.47-.36,2.64,1.21,4.95,3.5,5.77h33.06v-30.98c0-2.34,1.38-4.55,3.59-5.32,2.18-.76,4.41-.04,5.82,1.57,4.43,5.03,10.9,8.21,18.12,8.21,13.75,0,24.81-11.47,24.15-25.36-.59-12.45-10.93-22.6-23.39-22.99Z"/><path class="cls-3" d="M75.57,204.06c-.23,7.59,3.04,14.41,8.32,18.99,1.11,.97,1.75,2.36,1.75,3.83v.1c0,2.97-2.4,5.38-5.36,5.38h-31.25v79.14c0,12.31,9.98,22.28,22.28,22.28h79.14v-101.42h-31.25c-2.96,0-5.36-2.4-5.36-5.36h0c0-1.56,.7-3.02,1.87-4.06,5.03-4.43,8.21-10.9,8.21-18.12,0-13.75-11.47-24.81-25.36-24.15-12.45,.59-22.6,10.93-22.99,23.39Z"/><path class="cls-2" d="M40.19,65.67l-18.28-23.49s-24.16-5.95-5.13-20.03C35.82,8.08,68.81-7.47,82.73,7.12c13.92,14.59,20.69,46.63,20.69,46.63,0,0-10.64,10.39-16.32,.87-7.8-13.05-11.41-19.71-11.41-19.71l13.61,34.87s-6.73,4.91-14.38,5.59c-7.64,.68-18.81,5.06-34.74-9.7Z"/><path class="cls-3" d="M93.89,60.08c-.19,0-.38,0-.57-.02-2.6-.17-4.83-1.49-6.62-3.9-2.46-3.33-4.7-8.35-6.87-13.2-3.06-6.86-6.53-14.64-10.07-15.72-.81-.25-1.26-1.1-1.01-1.9,.25-.81,1.1-1.27,1.9-1.01,4.87,1.49,8.32,9.21,11.97,17.4,2.1,4.7,4.27,9.56,6.53,12.63,1.24,1.68,2.67,2.56,4.36,2.67,3.39,.23,6.93-2.61,8.26-3.81-.93-5.02-6.56-32.63-20.07-44.96C65.47-6.57,31.5,13.92,17.65,23.41c-.69,.48-1.64,.3-2.12-.4-.48-.7-.3-1.64,.4-2.12C57.75-7.76,76.38-.74,83.76,5.99c15.61,14.24,20.95,46.16,21.17,47.51,.08,.48-.07,.96-.41,1.3-.22,.22-5.16,5.27-10.63,5.27Z"/><path class="cls-3" d="M80.72,76.02c-1.74,0-3.55-.52-5.33-1.81-.68-.5-.83-1.45-.34-2.13,.5-.68,1.45-.83,2.13-.34,4.53,3.3,9.23-.93,10.87-2.69L62.26,14.15c-.36-.76-.03-1.67,.73-2.03,.76-.36,1.67-.03,2.03,.73l26.22,55.81c.24,.52,.17,1.14-.18,1.59-1.91,2.43-5.9,5.78-10.34,5.78Z"/><path class="cls-3" d="M68.48,79.39c-2.91,0-5.9-.75-7.98-3.17-4.66-5.45-27.84-42.91-28.83-44.5-.44-.72-.22-1.66,.5-2.1,.71-.44,1.66-.22,2.1,.49,.24,.39,24.04,38.85,28.55,44.12,2.87,3.35,9.08,1.9,12,.98L46.14,21.18c-.39-.74-.11-1.67,.63-2.06,.74-.4,1.67-.11,2.06,.63l29.51,55.59c.2,.38,.23,.82,.09,1.22-.14,.4-.45,.73-.84,.9-.29,.13-4.6,1.94-9.12,1.94Z"/><path class="cls-3" d="M57.05,77.05c-17.61,0-35.63-32.96-36.45-34.49-.4-.74-.12-1.67,.62-2.07,.74-.4,1.67-.13,2.07,.62,.05,.1,5.34,9.83,12.71,18.65,6.57,7.86,16.16,16.61,24.56,13.64,.8-.27,1.67,.14,1.95,.93s-.14,1.67-.93,1.95c-1.5,.53-3.01,.77-4.52,.77Z"/><path class="cls-3" d="M452.98,170.05c-.43,0-.86-.18-1.16-.53-.55-.64-.48-1.6,.17-2.15,3.74-3.2,2.94-13.67-1.85-24.34-5.58-12.43-16.57-25.02-30.71-23.09-13.5,1.84-23.99-.07-31.19-5.69-7.66-5.98-8.62-13.97-8.65-14.31-3.98-36.06-36.53-62.17-72.63-58.18-.84,.1-1.59-.51-1.68-1.35-.09-.84,.51-1.59,1.35-1.68,37.72-4.15,71.82,23.14,75.99,60.88,0,.07,.85,7.05,7.5,12.24,6.52,5.09,16.25,6.8,28.91,5.07,15.78-2.14,27.87,11.43,33.9,24.87,4.5,10.02,6.75,23.02,1.06,27.9-.29,.25-.64,.37-.99,.37Z"/><g><path class="cls-2" d="M301.41,54.63l28.37,.15c10.01,.05,18.17,8.29,18.11,18.31l-.07,13.6c-.02,4.2-.6,8.28-1.64,12.17,9.39,.09,16.94,7.74,16.89,17.14-.05,9.42-7.72,17.01-17.14,16.96-5.54-.03-10.43-2.71-13.52-6.81l12.91,27.14,9.52-2.77c3.88,.84,4.01,3.34,4.54,8.66,0,0,1.53,42.33-33.86,49.3-33.55,6.61-31.42-33.73-24.32-42.34l9.16-2.67c-1.16-1.55-2.19-3.23-3.06-5.05l-11.41-23.98-3.27-.02c-16.14-.09-29.27-13.36-29.18-29.5l.07-12.8c.11-20.73,17.16-37.6,37.89-37.49Z"/><path class="cls-3" d="M318.54,210.73c-10.43,0-16.01-5.27-18.95-10.2-6.88-11.53-4.48-29.4,.44-35.36,.2-.24,.46-.41,.75-.49l7.12-2.08c-.73-1.13-1.39-2.31-1.97-3.52l-11-23.12h-2.31c-17.02-.1-30.79-14.02-30.7-31.04l.07-12.8c.06-10.43,4.2-20.25,11.67-27.64,7.42-7.34,17.19-11.37,27.55-11.37h.22l28.36,.15c5.25,.03,10.19,2.11,13.91,5.87,3.72,3.76,5.75,8.72,5.72,13.97l-.07,13.6c-.02,3.62-.44,7.23-1.25,10.75,9.3,1.04,16.55,9,16.49,18.56-.05,10.24-8.46,18.53-18.67,18.48-3.21-.02-6.28-.84-8.98-2.37l9.2,19.35,8.27-2.41c.24-.07,.5-.08,.75-.03,4.85,1.05,5.18,4.42,5.69,9.52l.05,.48c.02,.53,1.17,43.81-35.08,50.95-2.65,.52-5.07,.76-7.27,.76Zm-16.43-43.27c-3.66,5.06-6.07,21.15,.11,31.51,4.44,7.45,12.18,10.14,23.01,8.01,33.69-6.63,32.69-46.07,32.63-47.75l-.04-.38c-.51-5.12-.77-6.2-2.93-6.76l-9.14,2.66c-.72,.21-1.48-.13-1.8-.81l-12.91-27.14c-.34-.71-.08-1.55,.59-1.96,.67-.41,1.54-.24,2.01,.39,2.95,3.92,7.44,6.18,12.31,6.2h.08c8.52,0,15.48-6.91,15.52-15.44,.05-8.52-6.85-15.52-15.38-15.6-.47,0-.92-.23-1.2-.6-.28-.38-.38-.86-.26-1.32,1.04-3.84,1.57-7.81,1.59-11.78l.07-13.6c.02-4.44-1.7-8.63-4.84-11.81-3.14-3.18-7.32-4.94-11.76-4.96l-28.37-.15s-.13,0-.2,0c-9.55,0-18.56,3.72-25.4,10.49-6.89,6.81-10.71,15.87-10.76,25.48l-.07,12.8c-.08,15.34,12.33,27.88,27.66,27.96l3.27,.02c.59,0,1.12,.34,1.37,.87l11.41,23.98c.8,1.68,1.78,3.3,2.9,4.79,.3,.4,.39,.92,.23,1.4-.16,.48-.54,.84-1.02,.98l-8.69,2.53Z"/></g><path class="cls-3" d="M302.63,135.78c-.08,0-.16,0-.25,0l-22.99-.12c-.77,0-1.38-.63-1.38-1.39,0-.76,.62-1.38,1.39-1.38h0l22.99,.12c4.52-.03,8.97-.66,13.25-2.02,.73-.23,1.51,.17,1.74,.9,.23,.73-.17,1.51-.9,1.74-4.47,1.43-9.14,2.16-13.86,2.16Z"/><path class="cls-3" d="M316.1,35.43c32.32,4.28,57.35,31.45,58.36,64.63-7.32,4.8-16.2,7.61-25.77,7.56-24.87-.13-44.93-19.42-44.8-43.08,.06-11.27,4.7-21.49,12.21-29.1Z"/><path class="cls-3" d="M339.38,116.8c-.1,0-.2-.01-.3-.03-.75-.17-1.22-.9-1.05-1.65,.07-.3,1.71-7.45,8.07-9.73,.72-.27,1.51,.11,1.77,.84,.26,.72-.11,1.51-.84,1.77-4.9,1.77-6.29,7.67-6.3,7.72-.15,.65-.72,1.08-1.35,1.08Z"/><path class="cls-3" d="M300.99,94.17c-.5,2.23-2.05,3.78-3.47,3.46-1.42-.32-2.16-2.38-1.66-4.61,.5-2.23,2.05-3.78,3.47-3.46,1.42,.32,2.16,2.38,1.66,4.61Z"/><path class="cls-3" d="M276.09,92.48c-.5,2.23-2.05,3.78-3.47,3.46-1.42-.32-2.16-2.38-1.66-4.61,.5-2.23,2.05-3.78,3.47-3.46,1.42,.32,2.16,2.38,1.66,4.61Z"/><path class="cls-3" d="M307.56,86.6c-.38,0-.76-.16-1.04-.46-3.59-4.02-9.77-3.06-9.84-3.05-.76,.11-1.47-.39-1.59-1.14-.13-.76,.38-1.47,1.14-1.6,.31-.05,7.74-1.23,12.36,3.94,.51,.57,.46,1.45-.11,1.96-.26,.24-.59,.35-.92,.35Z"/><path class="cls-3" d="M286.96,121.62c-5.68,0-11.18-6.34-11.43-6.64-.32-.37-.42-.89-.26-1.35,.16-.46,.55-.81,1.03-.91l18.33-3.78c.47-.1,.94,.05,1.27,.39,.33,.34,.47,.82,.36,1.28-1.45,6.28-4,9.92-7.6,10.8-.57,.14-1.14,.2-1.71,.2Zm-7.6-6.69c2.25,2.05,5.8,4.5,8.65,3.8,2.51-.62,4.05-3.6,4.99-6.6l-13.63,2.81Z"/><path class="cls-3" d="M277.17,102.11c-.54,0-1.05-.31-1.27-.84-.3-.7,.02-1.52,.72-1.82,4.18-1.81,5.89-7.19,3.81-12-1.02-2.36-2.78-4.22-4.96-5.24-2.12-.99-4.39-1.06-6.39-.2-.7,.3-1.52-.02-1.82-.72-.3-.7,.02-1.52,.72-1.82,2.74-1.18,5.82-1.1,8.67,.24,2.8,1.31,5.05,3.67,6.34,6.65,2.69,6.22,.33,13.24-5.25,15.65-.18,.08-.37,.11-.55,.11Z"/><g><path class="cls-2" d="M400.65,274.16l-31.43,2.53,31.43-2.53Z"/><rect class="cls-3" x="369.17" y="273.89" width="31.53" height="3.05" transform="translate(-20.81 31.69) rotate(-4.59)"/></g><g><path class="cls-2" d="M366.16,233.58l12.17,41.59-12.17-41.59Z"/><rect class="cls-3" x="370.72" y="232.7" width="3.05" height="43.34" transform="translate(-56.46 114.8) rotate(-16.31)"/></g><path class="cls-3" d="M3.72,60.62c-.81,0-1.49-.64-1.52-1.46-.57-12.78,1.35-29.79,13.73-38.27C57.75-7.76,76.38-.74,83.76,5.99c15.61,14.24,20.95,46.16,21.17,47.51,.08,.48-.07,.96-.41,1.3-.22,.23-5.52,5.62-11.2,5.25-2.6-.17-4.83-1.49-6.62-3.9-2.46-3.33-4.7-8.35-6.87-13.2-3.06-6.86-6.53-14.64-10.07-15.72-.81-.25-1.26-1.1-1.01-1.9,.25-.81,1.1-1.27,1.9-1.01,4.87,1.49,8.32,9.21,11.97,17.4,2.1,4.7,4.27,9.56,6.53,12.63,1.24,1.68,2.67,2.56,4.36,2.67,3.38,.22,6.93-2.61,8.26-3.81-.93-5.02-6.56-32.63-20.07-44.96C65.47-6.56,31.5,13.92,17.65,23.41,6.43,31.1,4.71,47.02,5.24,59.03c.04,.84-.61,1.55-1.46,1.59-.02,0-.05,0-.07,0Z"/><path class="cls-1" d="M122.15,307.24c7.59,.23,14.41-3.04,18.99-8.32,.97-1.11,2.36-1.75,3.83-1.75h.1c2.97,0,5.38,2.4,5.38,5.36v31.25h79.14c12.31,0,22.28-9.98,22.28-22.28v-79.14h-101.42v31.25c0,2.96-2.4,5.36-5.36,5.36h0c-1.56,0-3.02-.7-4.06-1.87-4.43-5.03-10.9-8.21-18.12-8.21-13.75,0-24.81,11.47-24.15,25.36,.59,12.45,10.93,22.6,23.39,22.99Z"/><path class="cls-3" d="M220.63,232.03h31.25v-79.14c0-12.31-9.98-22.28-22.28-22.28h-79.14v30.99c0,2.96,2.4,5.36,5.38,5.36h.1c1.47,0,2.87-.63,3.83-1.75,4.58-5.27,11.4-8.55,18.99-8.32,12.46,.38,22.8,10.54,23.39,22.99,.66,13.89-10.41,25.36-24.15,25.36-7.22,0-13.69-3.18-18.12-8.21-1.42-1.61-3.65-2.32-5.82-1.57-2.21,.77-3.59,2.98-3.59,5.32v31.24h31.25c2.96,0,5.36,2.4,5.36,5.36,0,1.56-.7,3.02-1.87,4.06-5.03,4.43-8.21,10.9-8.21,18.12,0,13.75,11.47,24.81,25.36,24.15,12.45-.59,22.6-10.93,22.99-23.39,.23-7.55-3.01-14.34-8.24-18.92-1.16-1.02-1.83-2.47-1.83-4.01h0c0-2.97,2.4-5.37,5.36-5.37Z"/><g><path class="cls-2" d="M306.24,281.53l-41.99-38.76-28.7-4.65c-3.59-.08-5.81,3.89-3.86,6.9h0c2.78,4.3,6.92,7.55,11.76,9.23l11.11,3.86,9.69,9.69-25.03-3.23-21.94,8.78c-1.11,.44-1.44,1.85-.65,2.75h0c3.07,3.45,7.47,5.43,12.09,5.43h0l-7.03,4.02c-1.56,.89-1.81,3.04-.49,4.27h0c.56,.75,1.22,1.4,1.94,1.96,3.41,2.65,8.08,3.04,12.07,1.39l7-3.11,10.65,3.89-19.41,10.7c-1.92,1.11-1.72,3.94,.34,4.76h0c4.6,1.84,9.62,2.33,14.49,1.42l5.47-1.03,37.14,23.42,82.36,.81-4.04-57.33-62.98,4.84Z"/><path class="cls-3" d="M373.26,335.54h-.01l-82.36-.81c-.28,0-.56-.08-.8-.24l-36.64-23.1-4.88,.91c-5.16,.97-10.46,.45-15.34-1.5-1.5-.6-2.5-1.97-2.62-3.58-.11-1.61,.68-3.11,2.08-3.92l16.5-9.09-6.92-2.53-6.44,2.85c-4.68,1.94-9.88,1.33-13.62-1.58-.82-.64-1.55-1.36-2.15-2.15-.92-.91-1.36-2.16-1.21-3.45,.15-1.34,.91-2.49,2.08-3.16l3.13-1.79c-3.28-.9-6.28-2.73-8.58-5.32-.7-.79-.98-1.88-.73-2.91,.24-1.03,.97-1.88,1.96-2.27l21.94-8.78c.24-.1,.5-.13,.76-.1l20.59,2.66-6.28-6.28-10.78-3.75c-5.13-1.78-9.58-5.28-12.54-9.84-1.21-1.87-1.29-4.24-.2-6.18,1.09-1.94,3.14-3.1,5.37-3.07,.07,0,.14,0,.21,.02l28.7,4.65c.29,.05,.57,.18,.79,.39l41.5,38.31,62.32-4.79c.42-.04,.81,.1,1.11,.37,.31,.27,.5,.64,.52,1.05l4.04,57.33c.03,.42-.12,.84-.41,1.15-.29,.31-.69,.48-1.11,.48Zm-81.91-3.86l80.27,.79-3.81-54.15-61.45,4.73c-.43,.04-.84-.11-1.15-.4l-41.65-38.45-28.13-4.56c-1.07,0-2.02,.57-2.54,1.51-.54,.97-.51,2.11,.1,3.04,2.58,3.99,6.48,7.05,10.98,8.62l11.11,3.86c.22,.08,.42,.2,.58,.36l9.69,9.69c.46,.46,.58,1.16,.29,1.75-.29,.58-.9,.91-1.56,.84l-24.64-3.18-21.58,8.63s-.1,.04-.12,.14c-.02,.07,0,.13,.05,.18,2.78,3.13,6.77,4.92,10.95,4.92,.69,0,1.3,.46,1.47,1.13,.18,.67-.12,1.37-.72,1.72l-7.03,4.02c-.32,.18-.52,.49-.56,.86-.04,.36,.09,.71,.36,.96,.07,.06,.13,.13,.18,.21,.45,.61,1.01,1.17,1.66,1.67,2.88,2.24,6.92,2.69,10.55,1.18l6.97-3.09c.36-.16,.77-.17,1.14-.04l10.65,3.89c.56,.21,.95,.72,1,1.32,.05,.6-.26,1.16-.78,1.45l-19.41,10.7c-.53,.3-.55,.83-.53,1.04,.01,.21,.11,.73,.71,.97,4.33,1.73,9.05,2.19,13.64,1.34l5.47-1.02c.38-.08,.77,0,1.09,.21l36.78,23.18Z"/></g><path class="cls-3" d="M228.73,283.05c-.55,0-1.08-.3-1.36-.82-.39-.75-.1-1.67,.65-2.06l10.9-5.65c.31-.16,.66-.21,1-.14l28.26,5.65c.83,.17,1.36,.97,1.2,1.8s-.96,1.37-1.79,1.2l-27.73-5.55-10.43,5.4c-.22,.12-.46,.17-.7,.17Z"/><path class="cls-3" d="M265.87,299.61c-.16,0-.33-.03-.49-.08l-23.48-8.03c-.8-.27-1.22-1.14-.95-1.94,.27-.8,1.15-1.22,1.94-.95l23.48,8.03c.8,.27,1.22,1.14,.95,1.94-.22,.63-.81,1.03-1.44,1.03Z"/></g></g></svg>